<?xml version="1.0" encoding="UTF-8"?><svg id="Ebene_1" xmlns="http://www.w3.org/2000/svg" viewBox="0 0 3000 3000"><defs><style>.cls-1{fill:none;stroke:#000;stroke-miterlimit:10;stroke-width:129px;}</style></defs><path d="m1086.98,1085.92l-342.19,28.31c5.58,30.11,14.87,52.11,27.84,66,18.26,20.01,40.67,28.92,67.23,26.72,16.77-1.39,32.33-7.35,46.65-17.9,8.74-6.64,17.8-17.85,27.2-33.6l169.58,3.28c-21.62,51.7-49.72,89.82-84.27,114.35-34.57,24.53-85.81,39.61-153.75,45.23-58.99,4.88-106.17-.51-141.51-16.12-35.36-15.64-65.8-42.58-91.35-80.88-25.54-38.28-40.56-84.52-45.04-138.73-6.38-77.14-2.65-140.4,31.42-196.37,35.44-58.23,102.49-125.32,174.69-156.97,57.27-25.11,154.17-7.04,194.94,17.72,36.58,22.21,93.67,93.67,103.8,144.31,8.84,44.22,7.61,108.2,12.99,173.26l1.77,21.38Zm-181.11-76.25c16.98-42.43,2.83-130.08-12.87-144.68-15.71-14.61-35.3-20.94-58.79-19-27.12,2.24-80.99,17.45-98.72,78.21-9.12,15.73,2.57,69.73,2.21,99.39l168.16-13.91Z"/><path d="m1117.79,726.72l-149.37-65.82c40.51-53.17,62.49-58.9,84.36-75.75,39.69-30.58,68.43-42.58,92.86-55.9,27.85-15.19,64.55-23.57,89.71-33.37,25.16-9.79,52.78-16.12,82.85-18.99,48.28-4.6,87.49-3.88,117.62,2.18,30.13,6.05,56.29,22.15,78.48,48.31,15.56,18.09,29.01,44.55,40.31,79.35,11.31,34.82,18.5,68.39,21.58,100.72l28.9,303.28c3.08,32.33,6.75,57.54,11,75.62,4.25,18.1,11.95,40.96,23.11,68.6l-151.18,14.41c-7.76-17.09-13-30.18-15.72-39.29-2.73-9.09-5.97-23.46-9.7-43.12-17.95,35.21-36.67,60.92-56.15,77.13-26.69,21.68-58.9,34.32-96.63,37.92-50.13,4.78-90-10.56-119.6-46.03-29.6-35.45-47.05-81-52.35-136.61-4.97-52.16.3-95.95,15.84-131.36,15.53-35.41,47.71-63.7,96.54-84.89,58.53-25.58,96.38-43.21,113.57-52.92,17.18-9.68,35.18-21.94,54-36.79-3.08-32.33-9.33-54.58-18.74-66.73-9.41-12.15-37.92-33.31-58.5-31.34-26.39,2.51-58.23,2.53-113.93,27.85-13.63,6.2-78.48,55.7-108.86,83.55Zm312.66,119.24c-20.93,15.05-42.93,28.67-65.99,40.87-31.36,17.34-50.74,33.33-58.13,47.95-7.62,15.08-10.56,31.68-8.83,49.78,1.97,20.69,8,37.19,18.1,49.49,10.09,12.33,23.7,17.65,40.86,16.01,17.94-1.71,33.96-10.41,48.03-26.11,14.09-15.7,23.38-34.08,27.9-55.18,4.51-21.1,5.2-48.02,2.08-80.79l-4.01-42.03Z"/><path d="m1666.17,1019.65l143.5-22.71c5.92,28.68,14.21,49.21,24.86,61.55,10.66,12.35,24.86,18.52,42.62,18.52,19.41,0,34.45-6.95,45.11-20.89,8.29-10.33,12.43-23.25,12.43-38.77,0-17.5-5.45-31.03-16.34-40.58-7.81-6.77-28.54-15.11-62.16-25.07-50.21-14.71-85.07-28.35-104.61-40.89-19.53-12.53-43.19-22.61-56.56-52.46-13.38-29.85-41.86-88.56-45.57-126.59-3.92-40.2-12.31-137.19,3.73-168.1,15.44-29.74,34.33-52.83,59.67-67.74,25.34-14.92,104.16-19.57,146.73-17.33,48.1,2.53,105.15,36.55,126.59,48.1,21.43,11.56,72.81,44.32,93.67,63.29,27.85,25.32,58.88,69.97,68.36,111.4l-141.78,22.79c-3.55-20.32-36.09-48.74-58.23-70.89-17.72-17.72-53.17-37.98-113.93-20.25-24.79,7.23-37.09,24.49-44.55,34.24-7.45,9.75-11.19,21.58-11.19,35.5,0,15.52,10.17,46.72,38.02,72.04,9.15,8.32,39.17,1.07,70.91,7.44,48.07,9.15,83.83,21.88,107.27,38.2,23.44,16.32,41.38,39.59,53.81,69.84,12.44,30.25,18.65,63.48,18.65,99.7s-6.57,72.23-19.71,106.86c-13.15,34.63-33.87,62.18-62.17,82.68-28.29,20.48-66.84,30.74-115.61,30.74-68.91,0-117.98-16.53-147.23-49.6-29.24-33.06-48.01-80.08-56.3-141.03Z"/><path d="m2086.22,1105.56l125.37-34.97,142.55,263.93-19.21-298.34,117.08-32.66,73.69,470.05c1.6,8.96,2.29,18.05,2.01,27.15-1.85,59.7,5.31,165.26,2.78,193.11-5.06,63.29-32.91,237.98-121.52,334.19-100.67,109.3-251.04,247.03-288.62,250.64l-53.17-106.33c19.19,2.66,187.35-144.31,268.36-243.05,104.69-127.59,81.02-242.91,81.02-255.7,0-48.1-63.29-156.97-82.21-181.13l-248.14-386.89Z"/><path d="m854.49,2349.55l-94.94-100.45c-52.72-55.78-84.81-99.56-125.32-172.98l-43.04-81.02c-20.25-43.04-31.44-86.05-42.65-127.98-28.78-107.68-52.56-155.23-68.75-310.01l-5.4-102.64,159.84-1.16,7.6,101.27c13.65-37.26,62.01-84.16,75.95-98.74,18.82-19.57,79.72-42.09,105.59-46.05,51.01-7.81,94.81,14.43,131.37,66.73,36.57,52.3,61.23,120.1,73.99,203.39,14.09,91.98,9.63,164.49-13.37,217.58-23,53.07-57.74,83.17-104.2,90.28-22.52,3.45-43.9,1.04-64.16-7.22-20.26-8.26-81.12-25.96-98.84-38.62l-.47,15.83c-1.35,45.88,10.38,91.2,33.81,130.67l12.22,20.59,174.69,207.6-113.93,32.91Zm-99.8-631.92c6.7,43.73,18.01,75.22,33.95,94.44,15.93,19.23,33.6,27.35,53,24.38,17-2.6,29.7-14.93,38.09-37.01,8.39-22.06,8.86-57.38,1.42-105.98-6.86-44.77-17.88-76.73-33.07-95.91-15.2-19.16-31.41-27.42-48.65-24.78-18.68,2.86-32.63,15.84-41.84,38.91-9.21,23.08-10.17,58.4-2.89,105.94Z"/><path d="m1225.11,1656.56l-141.38-37.59c5.33-62.35,13.02-111.41,23.08-147.15,10.05-35.78,24.53-66.78,43.43-93.07,13.57-18.94,32.22-33.61,55.97-44.01,23.74-10.39,49.43-15.59,77.05-15.59,44.34,0,79.96,6.27,106.85,18.8,26.89,12.54,49.3,38.66,67.24,78.39,12.6,27.51,22.53,66.48,29.8,116.9,7.27,50.45,10.9,98.57,10.9,144.42v430.02c0,45.84,1.15,81.75,3.46,107.73,2.3,26.01,7.32,198.39,15.08,238.74h-138.84c-5.58-25.06-9.21-44.14-10.9-57.31-1.7-13.14-3.4-33.76-5.09-61.88-19.39,47.08-38.65,80.69-57.79,100.86-26.17,26.89-47.74,20.09-82.39,20.09-46.04,0-135.63-110.77-159.5-164.56-23.86-53.78-38.28-145.01-25.32-222.79,12.66-75.95,39.43-147.94,61.13-193.75,17.35-36.63,48.94-83.12,95.22-106.36,55.48-28.11,91.46-47.81,107.94-59.15,16.47-11.3,33.92-26.12,52.34-44.46,0-45.84-3.76-77.94-11.27-96.27-7.51-18.34-20.72-27.51-39.62-27.51-24.23,0-42.4,9.79-54.52,29.34-9.45,15.29-17.08,44.01-22.9,86.19Zm128.3,196.22c-20.35,18.34-41.56,34.54-63.6,48.6-30.05,20.17-49.07,40.04-57.06,59.6-8.24,20.17-12.36,43.09-12.36,68.77,0,29.34,4.06,53.33,12.18,71.97,8.11,18.67,20.04,27.97,35.8,27.97s31.8-10.09,45.97-30.26c14.18-20.17,24.23-44.76,30.17-73.8,5.93-29.04,8.9-66.78,8.9-113.24v-59.6Z"/><path d="m1782.96,1899.55l139.93,52.53c-6.09,74.15-19.92,168.58-33.81,222.79-13.89,54.25-57.26,175.59-78.86,205.6-21.6,30.02-37.13,45.04-70.43,45.04s-58.95-9.66-80.36-28.93c-21.42-19.27-39.83-50.49-55.24-93.67-15.42-43.15-39.43-215.33-48.19-273.5-8.76-58.16-13.13-135.3-13.13-231.43s5.33-183.97,15.99-250.72c7.8-48.97,18.46-92.89,31.97-131.76,13.51-38.87,27.4-67.82,41.68-86.8,22.65-29.98,51.67-44.99,87.07-44.99,49.48,0,87.21,28.49,113.19,85.48,25.98,56.99,44.2,140.33,54.67,250.02l-109.33,46.88c-3.43-41.66-9.66-73.07-18.7-94.22-9.04-21.12-21.18-31.7-36.4-31.7-19.22,0-34.78,22.18-46.68,66.53-11.89,44.35-17.84,111.47-17.84,201.38,0,80.15,5.9,141,17.7,182.6,11.8,41.58,26.83,62.39,45.1,62.39,15.22,0,28.02-12.55,38.39-37.69,10.38-25.12,18.13-63.72,23.27-115.82Z"/><path d="m2249.84,1660.42l-200.91,23.44c6.33,38.56,14.04,66.91,23.15,85.09,12.87,26.16,27.1,38.33,42.69,36.51,9.85-1.15,18.51-8.17,25.99-21.07,4.54-8.14,8.82-22.08,12.84-41.79l101.29,10.43c-7.72,65.05-20.65,112.56-38.78,142.53-18.13,29.97-47.14,47.29-87.03,51.94-34.64,4.04-63.26-4.56-85.86-25.76-22.61-21.22-43.42-56.66-62.45-106.38-19.02-49.69-32.57-109.14-40.64-178.36-11.49-98.48-7.69-179.7,11.38-243.66,19.08-63.95,51.67-98.63,97.8-104.01,37.42-4.37,68.56,5.83,93.41,30.6s45.96,62.39,63.33,112.88c17.37,50.5,30.9,117.26,40.59,200.32l3.18,27.29Zm-115.43-103.79c-7.41-46.43-16.52-79.25-27.33-98.44-10.81-19.18-23.11-27.97-36.89-26.36-15.92,1.86-26.87,18.57-32.83,50.13-3.86,19.69-4.42,48.42-1.68,86.19l98.73-11.52Z"/><circle class="cls-1" cx="1492" cy="1486" r="1358.5"/></svg>