<?xml version="1.0" encoding="UTF-8"?><svg id="Ebene_2" xmlns="http://www.w3.org/2000/svg" viewBox="0 0 2000 2000"><defs><style>.cls-1{fill:none;stroke:#000;stroke-miterlimit:10;stroke-width:95px;}</style></defs><path d="m1269.44,409.19l28.58-96.45s-155.06-81.78-294.42-64.7c-139.36,17.08-82.53,240.96,28.83,278.41,115.52,38.85,289.35,83.19,285.45,171.61-2.23,50.45-166.42,55.74-254.54,32.86l63.4,157.19s204.98,2.87,267.61-56.1c64.01-60.27,67.98-123.09-1.07-245.38-53.59-94.91-363.74-130.01-361.54-185.73s94.62-76.04,237.7,8.31Z"/><path d="m1443.72,1093.9s-58.17-160.55-174.61-160.69-141.04,65.55-142.57,98.42c-1.53,32.87,38.8,488.37,74.56,587.96,30.05,83.7,191.83,79.81,285.59-58.5,30.52-45.02,47.07-98.05,48.62-152.42,1.16-40.81-.81-92.61-15.47-120l-103.24,17.63s34.73,212.04-53.21,211.65c-87.94-.39-123.41-130.88-138.53-294.76-15.12-163.88.66-184.66,21.3-191.56,20.64-6.91,73.64-.92,90.37,94.65l107.18-32.38Z"/><circle class="cls-1" cx="1000.5" cy="1000.5" r="898.5"/><path d="m1386.13,369.31l112.4,396s-37.53,102.68-121.64,126.6l43.82,86.1s140.72-89.48,167.72-180.62l89.94-147.94-71.56-111.34-43.94,154.58-57.43-247.29-119.32-76.09Z"/><g><path d="m581.7,1019.32c117.66-91.46,50.47-217.69,38.36-250.54l-98.63,91s26.06,88.17-18.96,106.14c-45.02,17.97-102.03-63.98-102.03-63.98l204.05-188.49s-19.62-132.28-91.65-166.01c-49.18-23.03-119.32,20.75-167.74,89.92,0,0-93.2,133.5-72.36,278.2,20.85,144.7,200.89,187.76,308.95,103.77Zm-156.44-333.37c44.22-38.37,63.15,52.52,63.15,52.52l-117.37,109.86s-43.23-77.82,54.21-162.38Z"/><path d="m1744.71,1067.99l-70.27,50.84s27.09,48.23-4.68,60.91c-31.77,12.68-58.27-46.27-58.27-46.27l128.36-120.17s6.67-163.65-44.17-187.46c-34.7-16.25-117.39,84.15-151.57,132.97,0,0-65.78,94.22-51.06,196.34,14.71,102.12,98.7,202.07,174.96,142.79,83.04-64.55,81.06-208,76.71-229.95Zm-107.28-115.84c36.72-31.86,52.43,43.61,52.43,43.61l-97.45,91.21s-35.89-64.61,45.01-134.82Z"/><path d="m834.77,990.47c106.39-10.05,119.13-115.82,119.13-115.82l42.66,75.44,103.37-44.66s-44.97-75.47-119.64-290.15c-74.67-214.68-134.33-296.96-170.51-316.85-36.18-19.89-124.29-20.24-199.84,49.32s-16.95,229.43-16.95,229.43l117.81-22.1s-23.45-76.25,27.63-102.83c51.08-26.59,74.42,65.24,74.42,65.24-18.18,56.71-84.45,101.8-131.97,171.43s-8.46,171.14-8.46,171.14c0,0,55.95,140.47,162.34,130.42Zm-67.72-230.34c5.19-50.15,80.9-126.6,80.9-126.6,74.74,128.33,31.61,199.96,0,211.64-27.29,10.08-86.08-34.88-80.9-85.03Z"/><path d="m1061.06,1034.61c-27.9-30.39-110.58-55.99-202.92-7.6-92.34,48.38-86.34,226.09-86.34,226.09l117.49,11.5s1.36-83.47,57.52-95.6,49.91,87,49.91,87c-34.49,51.88-110.59,78.28-176.62,134.76s-60.47,169.85-60.47,169.85c0,0,9.47,157.43,112.52,177.79,103.06,20.37,147.49-82.46,147.49-82.46l16.94,88.16,110.84-15.34s-19.1-88.86-23.37-326.35c-4.27-237.5-35.08-337.41-62.98-367.79Zm-133.11,555.96c-29.09-.46-67.67-63.62-44.72-108.51s121.17-88.83,121.17-88.83c23.33,146.67-42.75,197.88-76.45,197.35Z"/><path d="m581.15,1093.02c-75.25-6.39-156.56,5.39-196.09,104.2l-19.76-61.08s-57.49,3.59-100.61-7.19l11.35,44.53c8.92,35,27.79,103.74,42.95,136.52,31.62,68.35,57.58,111.27,108.25,170.37,10.35,12.07,79.98,85.14,114.12,112.08l121.66,88.51,14.98-62.97,12.48-47.1c4.64-2.92-137.11-81.88-183.37-177.21,0,0,107.18,23.33,179.78-27.6,101.93-71.49.12-264.09-105.73-273.08Zm-56.97,233.45c-40.42,0-59.59-36.48-65.72-60.46-4.38-17.15-14.87-50.82,15.83-70,49.56-30.98,95.91,6.54,106.86,28.44,24.21,48.42.61,102.03-56.97,102.03Z"/></g></svg>